<?xml version="1.0" encoding="UTF-8"?>
<svg id="Layer_1" data-name="Layer 1" xmlns="http://www.w3.org/2000/svg" viewBox="0 0 332.609 247.969">
  <defs>
    <style>
      .cls-1 {
        stroke: #000;
      }

      .cls-1, .cls-2 {
        fill: none;
        stroke-miterlimit: 10;
        stroke-width: 3px;
      }

      .cls-2 {
        stroke: #000;
      }
    </style>
  </defs>
  <g id="Layer_3" data-name="Layer 3">
    <polyline class="cls-1" points="126.28 56.737 156.31 44.102 148.56 27.439 163.218 21.007 170.272 38.459 180.769 65.685 167.94 70.363 161.072 55.882 130.653 67.713"/>
    <polyline class="cls-1" points="167.947 34.184 179.756 29.687 189.447 51.133 177.368 55.321"/>
    <polyline class="cls-1" points="92.535 82.066 59.787 95.833 67.649 112.443 53.035 118.974 45.864 101.57 35.184 74.414 47.981 69.65 54.947 84.085 88.535 70.301"/>
    <polyline class="cls-1" points="47.9 105.806 35.388 111.255 26.425 89.495 38.418 85.007"/>
  </g>
  <path class="cls-2" d="m106.029,153.028s5.263-33.333,38.596-37.719,44.343,13.888,52.632,26.316c1.882,2.822-1.898,15.03-6.133,20.677-6.467,8.623-18.657,14.068-19.305,14.411-6.577,3.472-34.812,12.883-42.812,12.413-2.804-.165-21.743,1.322-34.353,1.882-9.101.404-17.417-.115-21.34-.435-1.492-.122-2.84-.923-3.668-2.171l-2.992-4.453c-.966-1.456-1.635-4.142-1.465-5.88l7.508-77.672s2.664-2.566,1.958-5.86v-4.941"/>
  <path class="cls-2" d="m120.065,159.948s31.059,7.529,48.471-10.353"/>
  <path class="cls-2" d="m105.477,63.948s5.176,12,4.471,14.824c0,0,.941,3.176,5.647,1.294s-.235-16.588-.235-16.588"/>
  <path class="cls-2" d="m96.535,66.301c2.824,5.647,2.353,12.706,2.353,12.706,3.412,4.706,10.824-.941,10.824-.941"/>
  <path class="cls-2" d="m88.771,67.478c.471,2.118-1.176,10.353,4.471,14.824,1.587,1.256,5.176-1.882,5.647-3.294"/>
  <path class="cls-2" d="m134.183,74.772s4.235-2.353,4.706,6.118-19.294,7.529-19.294,7.529c0,0-.941,9.412-20.706,8l4.706,32"/>
  <path class="cls-2" d="m74.888,75.713l.455-6.136c.01-.138.073-.26.183-.344,1.516-1.156,12.988-9.892,18.222-13.574,10.952-7.703,25.729-7.476,25.729-7.476,0,0,.779-.059,8.482,10.107,6.057,7.994,1.931,15.469-1.188,19.657-1.15,1.545-4.115,2.765-5.882,2l-3.529-.824"/>
</svg>